<svg data-name="Code for Canada Favicon" xmlns="http://www.w3.org/2000/svg" width="97.958" height="84.874"><path data-name="Path 11668" d="M71.968 78.195c-.286-.7-.6-1.388-.908-2.077-.621-1.378-1.275-2.747-2.014-4.084.253 1.508.593 2.985.964 4.451.184.734.371 1.467.581 2.191l.229.815q-1.816-.319-3.637-.594c-.828-.136-1.662-.224-2.492-.339s-1.663-.216-2.5-.3q-2.5-.276-5.02-.424a60.882 60.882 0 00-4.149-.113c-.305 0-.609-.008-.916 0 .334.106.671.194 1.006.292 1.29.38 2.585.723 3.888 1.016q2.46.564 4.938 1c.824.158 1.652.291 2.481.416s1.655.272 2.487.373c1.662.224 3.325.435 5 .594l1.4.133-.477-1.259c-.267-.703-.572-1.394-.861-2.091z" fill="#e50019"/><path data-name="Path 11669" d="M89.808 48.147c1.247-4.2 2.482-8.475 3.677-12.61l1.024-3.55-2.056.573c-3.349.937-6.745 1.921-10.029 2.873l-4.045 1.17-2.735-8.274-1.268 1.755c-2.244 3.107-4.5 6.28-6.7 9.374.4-2.962.822-6.089 1.21-9.191q.237-1.918.482-3.837c.377-2.978.766-6.056 1.1-9.093 0 0-1.634 5.982-2.174 8.938q-.346 1.9-.7 3.795c-.784 4.27-1.533 8.619-2.257 12.825l-.644 3.734 2.3-3.039c2.7-3.565 5.341-7.08 7.859-10.458l1.991 6.328 1.091-.309q2.492-.709 4.984-1.411 4.067-1.148 8.129-2.311l-.059.209c-1.2 4.229-2.433 8.6-3.613 12.915l-.272 1.042 6.455 2.01c-3.439 2.65-7.441 5.743-11.382 8.834l-6.423 5.089c-2.349 1.854-6.107 5.518-6.107 5.518a512.746 512.746 0 006.724-4.694l6.695-4.729c3.979-2.839 8.326-5.977 13.291-9.589l1.6-1.167z" fill="#e50019"/><path data-name="Path 11670" d="M52.521 5.686c.438 1.152.9 2.29 1.408 3.406q.987 2.205 2.082 4.349c.709 1.442 1.5 2.84 2.253 4.254l1.2 2.089c.39.7.818 1.381 1.233 2.068l.45.748.712-.394c.683-.378 1.361-.766 2.029-1.172s1.344-.8 2-1.223a53.637 53.637 0 003.9-2.651 54.611 54.611 0 00-4.431 1.617c-.729.287-1.447.6-2.162.912-.451.191-.892.4-1.336.6a40.123 40.123 0 00-.744-1.425l-1.141-2.119c-.8-1.39-1.572-2.8-2.421-4.16q-1.238-2.066-2.593-4.066a57.048 57.048 0 00-2.223-3.094c-.211-.275-.412-.556-.63-.827.129.367.276.727.414 1.088z" fill="#e50019"/><g data-name="Group 5098"><path data-name="Path 11546" d="M34.74 17.731a4.841 4.841 0 01-.314.732 4.418 4.418 0 00.314-.732z" fill="none"/><path data-name="Path 11547" d="M10.477 35.753v-.012z" fill="none"/><path data-name="Path 11548" d="M34.744 17.731a4.415 4.415 0 01-.314.732c-.042.081-.09.159-.137.238.223.249.447.505.68.779a8.852 8.852 0 003.963.3 7.943 7.943 0 002.725-1.067 10.636 10.636 0 002.241-1.913 14.045 14.045 0 001.618-2.341 19.066 19.066 0 001.132-2.452q.217-.613.427-1.2l.331-1.171c.226-.757.337-1.5.494-2.162 0-.016 0-.029.008-.045a4.821 4.821 0 01-.484-.085c-.066-.019-.126-.05-.191-.071 0 .012-.006.022-.009.034-.221.634-.4 1.341-.7 2.048l-.421 1.1-.5 1.112a17.845 17.845 0 01-1.237 2.192 12.622 12.622 0 01-1.6 1.963 8.167 8.167 0 01-2 1.389 8.66 8.66 0 01-2.177.66 11.679 11.679 0 01-2.159.118 12.806 12.806 0 01-1.681-.212c-.006.018-.007.035-.013.052z" fill="#e50019"/><path data-name="Path 11549" d="M26.992 35.754a58.466 58.466 0 003.066 5.083c.623.89 1.247 1.826 1.944 2.731.713.893 1.4 1.831 2.16 2.709s1.521 1.757 2.32 2.577c.769.848 1.587 1.624 2.391 2.361.4.369.785.743 1.178 1.089l1.191.975a27.567 27.567 0 002.232 1.713c.271.192.527.368.782.543a4.9 4.9 0 01.561-.792l.017-.015c-.21-.2-.417-.395-.643-.6-.638-.567-1.27-1.249-1.968-1.93s-1.405-1.43-2.135-2.2l-1.113-1.184q-.536-.624-1.1-1.241c-.763-.815-1.486-1.69-2.215-2.559-.713-.788-2.092-2.534-2.093-2.518-.032-.032-1.454-1.832-2.115-2.666-.628-.862-1.292-1.657-1.864-2.451l-1.653-2.221-.552-.763a4.925 4.925 0 01-.856.48c.151.289.297.572.465.879z" fill="#e50019"/><path data-name="Path 11550" d="M33.729 24.337c-.158-.262-.314-.5-.469-.758l.161.663a19.558 19.558 0 01.446 2.376c.737 7.627.393 12.032-.239 15a9.892 9.892 0 002.143-5.166 17.292 17.292 0 00.254-2.359 24.032 24.032 0 00-.061-2.54c-.1-.862-.155-1.738-.294-2.606-.118-.654-.215-1.305-.347-1.948l-.782-1.336c-.281-.452-.55-.896-.812-1.326z" fill="#e50019"/><path data-name="Path 11551" d="M7.748 38.801c-.033-.189-.075-.394-.113-.594a4.43 4.43 0 01-.426.129c-.135.03-.267.049-.4.068.029.177.059.358.083.53a22.547 22.547 0 01.167 5.028 11.977 11.977 0 01-1.318 4.7 2.962 2.962 0 01-.1.161 4.824 4.824 0 01.405.324 4.747 4.747 0 01.485.567c.1-.173.191-.342.266-.489a12.93 12.93 0 001.288-5.188 23.242 23.242 0 00-.337-5.236z" fill="#e50019"/><path data-name="Path 11552" d="M10.478 35.755l.269.21c.136.113.28.221.426.333a10.513 10.513 0 01.967.8l.759.714a16.468 16.468 0 004.011.391 10.256 10.256 0 002.281-.315 7.146 7.146 0 002.077-.875 5.417 5.417 0 00.865-.646 4.969 4.969 0 00.711-.738 6.774 6.774 0 00.4-.565c-.126-.036-.267-.05-.387-.095a4.848 4.848 0 01-.459-.216c-.078.083-.147.172-.232.253a5.583 5.583 0 01-1.447 1.017 5.9 5.9 0 01-1.8.547 8.808 8.808 0 01-1.976.067 12.27 12.27 0 01-1.987-.336c-.649-.165-1.282-.358-1.9-.542l-2.313-.669a4.805 4.805 0 01-.257.652z" fill="#e50019"/><path data-name="Path 11553" d="M44.926 61.618c-.928 1.16-2.13 2.422-3.251 3.9-.566.734-1.1 1.532-1.7 2.3l-1.8 2.348c-.251.333-.51.658-.769.982l-5.358-3.195-1.989-1.159c.116.734.208 1.455.294 2.165l.781.488 5.03 3.206c-.577.684-1.15 1.355-1.691 2.018-.6.714-1.214 1.371-1.768 2.021s-1.084 1.263-1.593 1.807l-.091.1a4.978 4.978 0 01.468.5l.118-.106a120.98 120.98 0 003.7-3.549c.639-.675 1.319-1.358 2-2.058 1.663 1.057 3.308 2.141 4.993 3.164l.163.1a20.678 20.678 0 00-4.656.879 40.012 40.012 0 00-5.2 1.98c-.207.1-.409.205-.614.306a4.836 4.836 0 01.34.691c.2-.071.391-.151.589-.218a44.317 44.317 0 015.21-1.51 26.453 26.453 0 012.638-.432 14.948 14.948 0 012.61-.115c.1 0 .2.014.3.022a4.842 4.842 0 011.281-2.391l-1.582-1.02c-1.546-1-3.121-1.954-4.691-2.915.227-.246.456-.491.677-.744l2.028-2.2c.691-.71 1.3-1.469 1.886-2.2s1.119-1.475 1.6-2.189l.713-1.035.6-1.016c.036-.062.067-.118.1-.179a4.816 4.816 0 01-1.247-.885c-.037.045-.076.088-.119.139z" fill="#e50019"/><path data-name="Path 11554" d="M25.225 64.51l-.129-.6a272.26 272.26 0 00-4.53-2.595c-1.936-1.071-3.833-2.2-5.8-3.223l-5.867-3.108-1.658-.781a4.775 4.775 0 01-.426.914l1.593.807 5.762 3.237c1.928 1.061 3.8 2.239 5.7 3.352s3.787 2.257 5.657 3.428l.028.017c-.045-.181-.076-.358-.129-.54a13.779 13.779 0 01-.201-.908z" fill="#e50019"/><path data-name="Path 11555" d="M48.021 5.215a2.624 2.624 0 00.539.091c.059 0 .114.018.173.018a2.712 2.712 0 10-.712-.109z" fill="#e50019"/><path data-name="Path 11556" d="M23.638 32.906a2.659 2.659 0 00.606.146 2.7 2.7 0 00.336.034 2.686 2.686 0 10-.942-.179z" fill="#e50019"/><path data-name="Path 11557" d="M4.513 50.729a2.719 2.719 0 10.557.79 2.649 2.649 0 00-.557-.79z" fill="#e50019"/><path data-name="Path 11558" d="M48.424 76.596a2.639 2.639 0 00-1.377.394h-.006a2.648 2.648 0 00-1.233 1.805c-.009.05-.01.1-.015.153a2.549 2.549 0 00-.031.306 2.662 2.662 0 102.662-2.662z" fill="#e50019"/><path data-name="Path 11559" d="M27.662 71.923a19.992 19.992 0 01.2 2.029l.122 1.876.018 1.526h.081a4.854 4.854 0 011.086.2q.093-.8.2-1.7l.087-1.944a38.616 38.616 0 00-.139-4.383 38.049 38.049 0 00-.8-4.836c-.22-.822-.384-1.674-.666-2.5l-.886-2.5a21.441 21.441 0 00-1.037-2.479l-1.129-2.458c-.873-1.578-1.759-3.15-2.684-4.657-1.034-1.438-2.009-2.881-3.027-4.217l-3.183-3.651c-1.053-1.121-2.164-2.075-3.125-3.008l-1.397-1.314c-.439-.424-.921-.742-1.339-1.087l-.167-.13c-.039.047-.07.092-.112.14l-.031.04-.083.087c-.03.031-.071.053-.1.084l.182.159c.4.367.864.713 1.273 1.158l1.308 1.378c.9.974 1.928 1.964 2.9 3.122l2.954 3.728c.94 1.351 1.833 2.8 2.781 4.24.838 1.506 1.633 3.068 2.414 4.626l.974 2.427.484 1.2c.161.4.254.824.384 1.231l.729 2.437c.247.8.372 1.623.563 2.413.456 1.567.61 3.136.907 4.6.126.74.17 1.465.258 2.163z" fill="#e50019"/><path data-name="Path 11560" d="M6.137 30.926a2.662 2.662 0 10.586 5.254 2.758 2.758 0 00.308-.1 2.654 2.654 0 001.025-.66l.019-.023a2.6 2.6 0 00.225-.273 2.654 2.654 0 00-2.163-4.2z" fill="#e50019"/><path data-name="Path 11561" d="M29.881 80.591a2.662 2.662 0 00-1.984-1.03c-.039 0-.075-.012-.114-.012a2.642 2.642 0 102.24 1.234c-.042-.066-.096-.129-.142-.192z" fill="#e50019"/><path data-name="Path 11562" d="M46.788 51.01c.179.815.361 1.556.51 2.261.049-.012.093-.031.142-.041a3.436 3.436 0 01.389-.046c-.1-.714-.232-1.469-.357-2.3l-.276-1.71c-.1-.59-.259-1.184-.392-1.805-.3-1.233-.546-2.555-.974-3.872s-.758-2.719-1.286-4.077c-.5-1.369-.968-2.776-1.569-4.131l-.847-2.052-.927-2c-.58-1.344-1.3-2.592-1.952-3.822a50.774 50.774 0 00-2.157-3.385c-.747-1.037-1.445-2.019-2.164-2.872a45.365 45.365 0 00-1.3-1.544 4.358 4.358 0 01-.356.324 4.731 4.731 0 01-.574.425c-.033.02-.072.04-.107.06.335.521.681 1.066 1.052 1.658.594.913 1.183 1.937 1.843 2.992l1.97 3.378c.682 1.173 1.411 2.373 2.085 3.631l1.034 1.893.947 1.956c.657 1.3 1.187 2.65 1.743 3.969.587 1.308.99 2.66 1.466 3.939.5 1.276.785 2.564 1.167 3.759.172.6.37 1.182.507 1.753z" fill="#e50019"/><path data-name="Path 11563" d="M32.777 16.24a2.662 2.662 0 10-2.662 2.662 2.635 2.635 0 001.254-.327c.049-.027.1-.05.146-.08a2.64 2.64 0 00.316-.236 2.56 2.56 0 00.2-.174c.053-.055.1-.117.146-.176a2.776 2.776 0 00.6-1.669z" fill="#e50019"/><path data-name="Path 11564" d="M48.424 55.339c-.044 0-.084.011-.128.013a2.633 2.633 0 00-2.2 1.379 2.653 2.653 0 102.326-1.392z" fill="#e50019"/></g></svg>